<svg width="25" height="24" viewBox="0 0 25 24" fill="none" xmlns="http://www.w3.org/2000/svg">
<path d="M15.0758 9.46992L10.0158 14.5299C9.36582 13.8799 8.96582 12.9899 8.96582 11.9999C8.96582 10.0199 10.5658 8.41992 12.5458 8.41992C13.5358 8.41992 14.4258 8.81992 15.0758 9.46992Z" stroke="#FF0000" stroke-opacity="0.5" stroke-width="1.5" stroke-linecap="round" stroke-linejoin="round"/>
<path d="M18.366 5.76998C16.616 4.44998 14.616 3.72998 12.546 3.72998C9.01599 3.72998 5.72599 5.80998 3.43599 9.40998C2.53599 10.82 2.53599 13.19 3.43599 14.6C4.22599 15.84 5.14599 16.91 6.14599 17.77" stroke="#FF0000" stroke-opacity="0.5" stroke-width="1.5" stroke-linecap="round" stroke-linejoin="round"/>
<path d="M8.96582 19.5299C10.1058 20.0099 11.3158 20.2699 12.5458 20.2699C16.0758 20.2699 19.3658 18.1899 21.6558 14.5899C22.5558 13.1799 22.5558 10.8099 21.6558 9.39993C21.3258 8.87993 20.9658 8.38993 20.5958 7.92993" stroke="#FF0000" stroke-opacity="0.5" stroke-width="1.5" stroke-linecap="round" stroke-linejoin="round"/>
<path d="M16.0558 12.7C15.7958 14.11 14.6458 15.26 13.2358 15.52" stroke="#FF0000" stroke-opacity="0.5" stroke-width="1.5" stroke-linecap="round" stroke-linejoin="round"/>
<path d="M10.0159 14.53L2.5459 22" stroke="#FF0000" stroke-opacity="0.5" stroke-width="1.5" stroke-linecap="round" stroke-linejoin="round"/>
<path d="M22.5459 2L15.0759 9.47" stroke="#FF0000" stroke-opacity="0.5" stroke-width="1.5" stroke-linecap="round" stroke-linejoin="round"/>
</svg>
