<svg width="25" height="24" viewBox="0 0 25 24" fill="none" xmlns="http://www.w3.org/2000/svg">
<path d="M18.7012 16.83L19.0929 19.99C19.1933 20.82 18.2994 21.4 17.5863 20.97L13.3781 18.48C12.9161 18.48 12.4642 18.45 12.0223 18.39C12.7655 17.52 13.2074 16.42 13.2074 15.23C13.2074 12.39 10.7367 10.09 7.68348 10.09C6.51843 10.09 5.44379 10.42 4.54992 11C4.51979 10.75 4.50974 10.5 4.50974 10.24C4.50974 5.68999 8.47691 2 13.3781 2C18.2793 2 22.2465 5.68999 22.2465 10.24C22.2465 12.94 20.8505 15.33 18.7012 16.83Z" stroke="#DD9090" stroke-width="1.5" stroke-linecap="round" stroke-linejoin="round"/>
<path d="M13.2074 15.23C13.2074 16.42 12.7655 17.52 12.0222 18.39C11.0279 19.59 9.45111 20.36 7.68346 20.36L5.06211 21.91C4.6202 22.18 4.05776 21.81 4.11802 21.3L4.36911 19.33C3.02328 18.4 2.15955 16.91 2.15955 15.23C2.15955 13.47 3.10364 11.92 4.5499 11C5.44377 10.42 6.51841 10.09 7.68346 10.09C10.7367 10.09 13.2074 12.39 13.2074 15.23Z" stroke="#DD9090" stroke-width="1.5" stroke-linecap="round" stroke-linejoin="round"/>
</svg>
