<svg width="25" height="24" viewBox="0 0 25 24" fill="none" xmlns="http://www.w3.org/2000/svg">
<path d="M18.1267 6.53C17.4638 3.93 15.1036 2 12.2814 2C8.957 2 6.25531 4.69 6.25531 8V13C6.25531 14.46 6.77757 15.8 7.65135 16.84" stroke="#DD9090" stroke-width="1.5" stroke-linecap="round" stroke-linejoin="round"/>
<path d="M18.3074 9.97998V13C18.3074 16.31 15.6058 19 12.2814 19C11.5482 19 10.8351 18.87 10.1923 18.63" stroke="#DD9090" stroke-width="1.5" stroke-linecap="round" stroke-linejoin="round"/>
<path d="M6.11469 19.58C7.73168 21.08 9.90107 22 12.2814 22C17.273 22 21.3205 17.97 21.3205 13V11" stroke="#DD9090" stroke-width="1.5" stroke-linecap="round" stroke-linejoin="round"/>
<path d="M21.8226 2.98999L2.74005 21.99" stroke="#DD9090" stroke-width="1.5" stroke-linecap="round" stroke-linejoin="round"/>
<path d="M11.8294 5.50001V2.26001" stroke="#DD9090" stroke-width="1.5" stroke-linecap="round" stroke-linejoin="round"/>
<path d="M8.76624 3.5V7.5" stroke="#DD9090" stroke-width="1.5" stroke-linecap="round" stroke-linejoin="round"/>
</svg>
