<svg width="50" height="50" viewBox="0 0 50 50" fill="none" xmlns="http://www.w3.org/2000/svg">
<path d="M24.9995 39.5834C31.8953 39.5834 37.4995 33.9792 37.4995 27.0834V16.6667C37.4995 9.77085 31.8953 4.16669 24.9995 4.16669C18.1037 4.16669 12.4995 9.77085 12.4995 16.6667V27.0834C12.4995 33.9792 18.1037 39.5834 24.9995 39.5834Z" stroke="black" stroke-width="3" stroke-linecap="round" stroke-linejoin="round"/>
<path d="M6.25049 22.9167V27.0834C6.25049 37.4375 14.6463 45.8334 25.0005 45.8334C35.3547 45.8334 43.7505 37.4375 43.7505 27.0834V22.9167" stroke="black" stroke-width="3" stroke-linecap="round" stroke-linejoin="round"/>
<path d="M18.979 15.5833C22.6873 14.2291 26.729 14.2291 30.4373 15.5833" stroke="black" stroke-width="3" stroke-linecap="round" stroke-linejoin="round"/>
<path d="M20.896 21.8333C23.396 21.1458 26.0418 21.1458 28.5418 21.8333" stroke="black" stroke-width="3" stroke-linecap="round" stroke-linejoin="round"/>
</svg>
