<svg width="25" height="24" viewBox="0 0 25 24" fill="none" xmlns="http://www.w3.org/2000/svg">
<path d="M12.0901 19C15.4145 19 18.1162 16.31 18.1162 13V8C18.1162 4.69 15.4145 2 12.0901 2C8.76572 2 6.06403 4.69 6.06403 8V13C6.06403 16.31 8.76572 19 12.0901 19Z" stroke="#DD9090" stroke-width="1.5" stroke-linecap="round" stroke-linejoin="round"/>
<path d="M3.05103 11V13C3.05103 17.97 7.09854 22 12.0902 22C17.0818 22 21.1293 17.97 21.1293 13V11" stroke="#DD9090" stroke-width="1.5" stroke-linecap="round" stroke-linejoin="round"/>
<path d="M9.1875 7.47999C10.9752 6.82999 12.9237 6.82999 14.7114 7.47999" stroke="#DD9090" stroke-width="1.5" stroke-linecap="round" stroke-linejoin="round"/>
<path d="M10.1116 10.48C11.3168 10.15 12.5923 10.15 13.7975 10.48" stroke="#DD9090" stroke-width="1.5" stroke-linecap="round" stroke-linejoin="round"/>
</svg>
