<svg width="266" height="40" viewBox="0 0 266 40" fill="none" xmlns="http://www.w3.org/2000/svg">
<path d="M17.7815 4.87074C18.7186 3.01926 21.413 3.17674 22.1281 5.1248C22.6004 6.41139 24.061 7.03193 25.3149 6.47872L27.6906 5.43063C31.8243 3.60692 35.9644 7.97279 33.9239 12.004L21.141 37.2581C20.2897 38.9399 18.5649 40 16.6799 40H9.87654H8.1349C4.40722 40 1.99037 36.0678 3.67384 32.7419L17.7815 4.87074Z" fill="#723A3A" fill-opacity="0.6"/>
<path d="M43.859 2.74193C44.7103 1.06012 46.4351 0 48.3201 0H56.8651C60.5928 0 63.0096 3.93219 61.3262 7.25807L46.141 37.2581C45.2897 38.9399 43.5649 40 41.6799 40H34.8765H33.1349C29.4072 40 26.9904 36.0678 28.6738 32.7419L43.859 2.74193Z" fill="#723A3A" fill-opacity="0.6"/>
<path d="M68.859 2.74193C69.7103 1.06012 71.4351 0 73.3201 0H81.8651C85.5928 0 88.0096 3.93219 86.3262 7.25807L71.141 37.2581C70.2897 38.9399 68.5649 40 66.6799 40H59.8765H58.1349C54.4072 40 51.9904 36.0678 53.6738 32.7419L68.859 2.74193Z" fill="#723A3A" fill-opacity="0.6"/>
<path d="M93.859 2.74193C94.7103 1.06012 96.4351 0 98.3201 0H106.865C110.593 0 113.01 3.93219 111.326 7.25807L96.141 37.2581C95.2897 38.9399 93.5649 40 91.6799 40H84.8765H83.1349C79.4072 40 76.9904 36.0678 78.6738 32.7419L93.859 2.74193Z" fill="#723A3A" fill-opacity="0.6"/>
<path d="M118.859 2.74193C119.71 1.06012 121.435 0 123.32 0H131.865C135.593 0 138.01 3.93219 136.326 7.25807L121.141 37.2581C120.29 38.9399 118.565 40 116.68 40H109.877H108.135C104.407 40 101.99 36.0678 103.674 32.7419L118.859 2.74193Z" fill="#723A3A" fill-opacity="0.6"/>
<path d="M144.354 2.69733C145.213 1.04013 146.925 0 148.792 0H157.773C161.523 0 163.938 3.97433 162.211 7.30267L146.646 37.3027C145.787 38.9599 144.075 40 142.208 40H135.123H133.227C129.477 40 127.062 36.0257 128.789 32.6973L144.354 2.69733Z" fill="#723A3A" fill-opacity="0.6"/>
<path d="M169.859 2.74193C170.71 1.06012 172.435 0 174.32 0H182.865C186.593 0 189.01 3.93219 187.326 7.25807L172.141 37.2581C171.29 38.9399 169.565 40 167.68 40H160.877H159.135C155.407 40 152.99 36.0678 154.674 32.7419L169.859 2.74193Z" fill="#723A3A" fill-opacity="0.6"/>
<path d="M194.859 2.74193C195.71 1.06012 197.435 0 199.32 0H207.865C211.593 0 214.01 3.93219 212.326 7.25807L197.141 37.2581C196.29 38.9399 194.565 40 192.68 40H185.877H184.135C180.407 40 177.99 36.0678 179.674 32.7419L194.859 2.74193Z" fill="#723A3A" fill-opacity="0.6"/>
<path d="M219.859 2.74193C220.71 1.06012 222.435 0 224.32 0H232.865C236.593 0 239.01 3.93219 237.326 7.25807L222.141 37.2581C221.29 38.9399 219.565 40 217.68 40H210.877H209.135C205.407 40 202.99 36.0678 204.674 32.7419L219.859 2.74193Z" fill="#723A3A" fill-opacity="0.6"/>
<path d="M248.219 35.1293C247.281 36.9807 244.587 36.8233 243.872 34.8752C243.4 33.5886 241.939 32.9681 240.685 33.5213L238.309 34.5694C234.176 36.3931 230.036 32.0272 232.076 27.996L244.859 2.74193C245.71 1.06012 247.435 0 249.32 0H256.123H257.865C261.593 0 264.01 3.93219 262.326 7.25807L248.219 35.1293Z" fill="#723A3A" fill-opacity="0.6"/>
</svg>
