<svg width="130" height="130" viewBox="0 0 130 130" fill="none" xmlns="http://www.w3.org/2000/svg">
<circle cx="65" cy="65" r="65" fill="white"/>
<path d="M65.4872 68.1688C65.2028 68.1281 64.8372 68.1281 64.5122 68.1688C57.3622 67.925 51.6747 62.075 51.6747 54.8844C51.6747 47.5313 57.6059 41.5594 64.9997 41.5594C72.3528 41.5594 78.3247 47.5313 78.3247 54.8844C78.2841 62.075 72.6372 67.925 65.4872 68.1688Z" stroke="#723A3A" stroke-width="1.5" stroke-linecap="round" stroke-linejoin="round"/>
<path d="M92.3811 94.9812C85.1498 101.603 75.5623 105.625 64.9998 105.625C54.4373 105.625 44.8498 101.603 37.6186 94.9812C38.0248 91.1625 40.4623 87.425 44.8092 84.5C55.9405 77.1062 74.1405 77.1062 85.1905 84.5C89.5373 87.425 91.9748 91.1625 92.3811 94.9812Z" stroke="#723A3A" stroke-width="1.5" stroke-linecap="round" stroke-linejoin="round"/>
<path d="M65 105.625C87.4366 105.625 105.625 87.4366 105.625 65C105.625 42.5634 87.4366 24.375 65 24.375C42.5634 24.375 24.375 42.5634 24.375 65C24.375 87.4366 42.5634 105.625 65 105.625Z" stroke="#723A3A" stroke-width="1.5" stroke-linecap="round" stroke-linejoin="round"/>
</svg>
