<svg width="25" height="24" viewBox="0 0 25 24" fill="none" xmlns="http://www.w3.org/2000/svg">
<path d="M3.94458 9.10998V14.88C3.94458 17 3.94458 17 5.94613 18.35L11.4504 21.53C12.281 22.01 13.6321 22.01 14.4527 21.53L19.957 18.35C21.9585 17 21.9585 17 21.9585 14.89V9.10998C21.9585 6.99998 21.9585 6.99999 19.957 5.64999L14.4527 2.46999C13.6321 1.98999 12.281 1.98999 11.4504 2.46999L5.94613 5.64999C3.94458 6.99999 3.94458 6.99998 3.94458 9.10998Z" stroke="#DD9090" stroke-width="1.5" stroke-linecap="round" stroke-linejoin="round"/>
<path d="M12.9516 15C14.6097 15 15.9539 13.6569 15.9539 12C15.9539 10.3431 14.6097 9 12.9516 9C11.2935 9 9.94928 10.3431 9.94928 12C9.94928 13.6569 11.2935 15 12.9516 15Z" stroke="#DD9090" stroke-width="1.5" stroke-linecap="round" stroke-linejoin="round"/>
</svg>
